<svg width="625" height="604" viewBox="0 0 625 604" fill="none" xmlns="http://www.w3.org/2000/svg">
<g clip-path="url(#clip0_226_8)">
<path fill-rule="evenodd" clip-rule="evenodd" d="M64.8749 432.263C165.304 366.657 248.873 351.581 309.145 407.544L487.2 575.217C517.172 603.441 566.18 602.846 596.142 574.613C626.101 546.376 625.446 500.195 595.507 471.947L373.74 262.797L343.433 233.896C324.678 216.012 293.62 216.012 274.858 233.896L244.56 262.797L64.8749 432.263L22.7914 471.947C-7.15816 500.195 -7.81484 546.376 22.1487 574.613C52.1076 602.846 101.129 603.441 131.101 575.217L296.878 419.099C232.852 368.219 165.927 382.855 64.8749 432.263Z" fill="#d8b66d"/>
<path fill-rule="evenodd" clip-rule="evenodd" d="M553.426 163.827C452.996 229.429 369.427 244.503 309.145 188.54L131.101 20.8723C101.129 -7.35297 52.1076 -6.75646 22.1487 21.4751C-7.81484 49.7081 -7.15816 95.8943 22.7914 124.138L244.56 333.288L274.858 362.189C293.62 380.074 324.678 380.074 343.433 362.189L373.74 333.288L553.426 163.827L595.507 124.138C625.446 95.8943 626.101 49.7081 596.142 21.4751C566.18 -6.75646 517.172 -7.35297 487.2 20.8723L321.412 176.99C385.441 227.866 452.364 213.235 553.426 163.827Z" fill="#d8b66d"/>
</g>
<defs>
<clipPath id="clip0_226_8">
<rect width="625" height="604" fill="#d8b66d"/>
</clipPath>
</defs>
</svg>
