<svg width="379" height="57" viewBox="0 0 379 57" fill="none" xmlns="http://www.w3.org/2000/svg">
<path d="M187.914 16.6278C188.169 14.2144 185.239 13.1519 182.874 13.1519C176.471 13.1519 174.337 18.1292 174.337 21.1117C174.337 27.024 174.337 32.9366 174.337 38.8489C174.337 40.6933 175.165 43.0155 178.208 43.0007C180.366 42.9902 180.312 41.2374 180.312 39.6854V28.3421H182.208C184.043 28.3421 186.864 27.7515 186.889 25.271C186.898 24.2518 185.961 23.5986 184.506 23.5986H180.321L180.272 21.5432C180.205 18.7186 181.947 17.533 184.16 17.8711C187.143 18.3261 187.766 18.0356 187.914 16.6278ZM187.939 32.0003C187.939 37.4936 191.732 42.4494 198.338 42.4494C205.434 42.4494 209.227 37.4936 209.227 31.2702C209.227 26.1856 205.977 21.5294 200.254 20.8645C201.093 20.7015 201.845 20.3336 202.411 19.8434C204.111 18.3703 204.173 15.4206 206.9 13.5789C201.904 12.3474 198.506 14.2789 197.39 17.6153C197.091 19.0156 197.583 19.2008 198.855 18.8423C200.529 18.3065 201.425 17.4941 203.166 15.5022C202.105 18.9816 197.767 21.0441 194.382 17.8304C195.416 19.5619 196.745 20.4687 198.065 20.8033C191.461 21.1494 187.939 26.0038 187.939 32.0003ZM203.558 32.0003C203.558 35.3809 202.009 37.8392 198.828 37.8392C195.198 37.8392 193.607 35.3809 193.607 31.2702C193.607 27.8512 195.198 25.3925 198.338 25.3925C201.927 25.3925 203.558 27.8512 203.558 32.0003ZM319.77 34.9198V30.1562C319.77 23.0107 315.201 20.8596 310.122 20.8596C305.255 20.8596 302.776 22.6556 302.086 24.5888C301.603 25.9408 302.053 27.2192 303.837 26.2961C305.055 25.6661 306.857 25.2004 309.277 25.2004C312.661 25.2004 314.185 26.0842 314.185 29.0035V29.2726H312.196C303.817 29.2726 300.855 32.0769 300.855 35.765C300.855 39.5682 304.579 42.334 309.995 42.334H311.138C316.216 42.334 319.77 39.2991 319.77 34.9198ZM314.227 35.439C314.227 37.5516 313.042 38.6274 310.588 38.6274C308.091 38.6274 306.653 37.6671 306.653 36.0537C306.653 34.3633 307.88 33.4414 312.196 33.4414C313.149 33.4414 314.227 33.8022 314.227 35.439ZM226.163 24.1605C226.418 21.747 223.487 20.6845 221.122 20.6845C214.72 20.6845 212.585 25.662 212.585 28.6443C212.585 34.5568 212.585 32.9366 212.585 38.8489C212.585 40.6933 213.413 43.0155 216.456 43.0007C218.614 42.9902 218.56 41.2374 218.56 39.6854L218.52 29.076C218.51 26.2505 220.195 25.0658 222.409 25.4035C225.391 25.8589 226.014 25.568 226.163 24.1605ZM251.431 20.5237C248.995 20.5807 246.904 22.0007 245.621 23.9031C243.425 21.9331 241.722 20.621 238.798 20.4633C234.068 20.2086 227.951 22.7761 227.951 28.6443C227.951 34.5568 227.951 32.9366 227.951 38.8489C227.951 40.6933 228.779 43.0155 231.823 43.0007C233.98 42.9902 233.699 41.2374 233.699 39.6854L233.659 29.3541C233.648 26.529 235.677 25.4329 238.025 25.4668C239.596 25.4899 241.848 26.025 241.92 31.5094V38.8489C241.92 40.6933 242.748 43.0155 245.791 43.0007C247.949 42.9902 247.895 41.2374 247.895 39.6854L247.857 29.6069C247.842 25.5283 250.878 25.0088 253.186 25.5785C255.462 26.2276 255.889 28.0221 255.889 28.6443C255.889 34.5568 255.889 32.9366 255.889 38.8489C255.889 40.6933 256.717 43.0155 259.76 43.0007C261.918 42.9902 261.703 41.2374 261.703 39.6854L261.664 29.076C261.651 25.7467 259.941 20.295 251.431 20.5237ZM274.491 42.9231C280.483 42.8935 284.747 40.5408 284.913 31.9378V24.5978C284.913 22.7537 284.087 20.4317 281.043 20.4463C278.885 20.4566 278.938 22.2093 278.938 23.7616L278.976 33.8399C278.992 37.9188 275.043 38.438 272.736 37.8683C270.459 37.2193 270.032 35.4246 270.032 34.8027C270.032 28.8899 270.032 30.5102 270.032 24.5978C270.032 22.7534 269.204 20.4313 266.16 20.4463C264.003 20.4566 264.056 22.2093 264.056 23.7616L264.097 34.3712C264.109 37.7 266.894 42.8988 274.491 42.9231ZM298.963 39.5248C299.217 41.9382 296.288 43.0007 293.923 43.0007C287.519 43.0007 287.158 38.0234 287.158 35.0409C287.158 28.9142 287.163 22.7878 287.159 16.6609C287.159 15.109 287.105 13.3562 289.262 13.3461C292.306 13.3311 293.134 15.6531 293.134 17.4975C293.134 17.9375 293.134 24.4885 293.134 24.9035H293.12L293.093 33.1161C293.084 35.9413 292.995 38.6191 295.208 38.2814C298.191 37.8263 298.813 38.1172 298.963 39.5248Z" fill="#FEFEFE"/>
<path fill-rule="evenodd" clip-rule="evenodd" d="M326.758 40.793C336.238 34.6017 344.127 33.179 349.817 38.4603L366.625 54.2837C369.455 56.9472 374.081 56.8911 376.91 54.2267C379.738 51.562 379.676 47.2038 376.85 44.538L355.915 24.8004L353.054 22.073C351.283 20.3852 348.352 20.3852 346.58 22.073L343.72 24.8004L326.758 40.793L322.785 44.538C319.958 47.2038 319.896 51.562 322.725 54.2267C325.553 56.8911 330.18 56.9472 333.01 54.2837L348.659 39.5507C342.615 34.7491 336.297 36.1303 326.758 40.793Z" fill="#FEFEFE"/>
<path fill-rule="evenodd" clip-rule="evenodd" d="M372.877 15.4605C363.397 21.6514 355.508 23.074 349.817 17.7927L333.01 1.96974C330.18 -0.693907 325.553 -0.637614 322.725 2.02662C319.896 4.691 319.958 9.04963 322.785 11.715L343.72 31.4527L346.58 34.18C348.352 35.8679 351.283 35.8679 353.054 34.18L355.915 31.4527L372.877 15.4605L376.85 11.715C379.676 9.04963 379.738 4.691 376.91 2.02662C374.081 -0.637614 369.455 -0.693907 366.625 1.96974L350.975 16.7027C357.019 21.5039 363.337 20.1232 372.877 15.4605Z" fill="#FEFEFE"/>
<path d="M164.142 31.5346L164.346 31.5002C164.42 29.5523 163.98 27.4001 162.994 25.8039C162.327 24.6614 161.483 23.9939 160.54 23.6285C159.644 23.2815 158.71 23.2305 157.922 23.2056C156.139 23.1113 154.573 23.0385 153.31 22.9943C153.519 21.8302 153.781 20.43 153.99 18.9603C154.109 18.198 154.26 17.2641 154.136 16.3243C154.005 15.3224 153.573 14.3477 152.623 13.4575C151.258 12.1728 149.244 11.3313 147.334 11.0404L147.306 11.0363L147.28 11.0339C147.036 11.011 146.609 10.969 146.151 10.985C145.717 11.0005 145.142 11.069 144.633 11.3411C144.09 11.6132 143.796 12.0671 143.695 12.5487C143.608 12.9592 143.67 13.358 143.699 13.5511L143.703 13.5795L143.709 13.6078C144.024 15.1076 143.975 16.6845 143.925 18.3102L143.924 18.3173C143.869 19.767 143.749 21.214 143.616 22.6781C141.014 22.5037 138.34 22.2803 135.662 22.2936C135.398 22.265 134.682 22.1758 134.024 22.3751C133.641 22.4917 133.225 22.7173 132.906 23.1359C132.591 23.5476 132.438 24.0584 132.414 24.6308C132.335 25.6251 132.892 26.4149 133.188 26.7786C134.324 28.2834 135.873 29.0026 137.057 29.5976C138.371 30.2576 139.693 30.7002 141.003 31.0334L141.023 31.0384L141.043 31.0429C141.61 31.1618 142.203 31.2866 142.812 31.3843C142.744 32.1752 142.69 32.9876 142.687 33.8083C142.665 35.2083 142.854 36.6059 143.135 37.977C143.408 39.308 143.796 41.0762 145.039 42.5946C145.289 42.8998 145.827 43.5941 146.752 43.8423L146.775 43.8488L146.799 43.8537C147.361 43.9752 147.9 43.9533 148.379 43.7356C148.86 43.5163 149.166 43.1518 149.36 42.8036C149.547 42.4662 149.645 42.1142 149.705 41.8523C149.736 41.7192 149.759 41.5923 149.778 41.4968C149.799 41.3896 149.81 41.3335 149.821 41.2972L149.825 41.2757L149.83 41.2538C150.469 38.2794 150.868 35.2648 151.305 32.3269C153.056 32.4974 154.77 32.6861 156.467 33.0136L156.482 33.0171L156.498 33.0193C158.033 33.2639 159.597 33.6071 161.019 34.2098L161.045 34.2207L161.072 34.2305C161.255 34.2954 161.63 34.4312 162.044 34.4215C162.531 34.4102 163.029 34.2019 163.394 33.7098C163.75 33.2548 163.924 32.6966 164.019 32.2692C164.078 32.0073 164.116 31.7515 164.142 31.5346Z" fill="#D8B66D"/>
<path d="M36.906 36.4978C36.7185 36.0602 36.4059 35.6226 35.9059 35.4976C34.7807 35.2476 34.4057 36.1852 33.7181 36.8103C32.9054 37.5604 31.4052 37.6229 30.4051 37.1229C29.4674 36.6228 29.0299 35.6226 28.5923 34.685C26.9671 31.247 26.0295 27.6215 23.0915 24.9336C22.3414 24.246 21.4663 23.6209 20.5287 23.0583C23.3416 21.7457 25.9669 19.8704 28.2798 17.6826C30.4051 15.6823 32.1553 13.3695 33.4055 10.7441C34.2181 9.18135 34.8432 7.4311 33.7181 5.68085C32.9054 4.43067 31.4052 3.61805 29.9675 3.30551C29.53 3.18049 28.6548 2.99296 28.1548 3.18049C27.7172 3.36802 27.7172 3.80558 27.7172 4.11812C27.9047 5.49332 27.5297 6.86852 27.0921 8.1187C26.2795 10.369 24.8418 12.3693 23.2165 14.1196C21.7788 15.6198 20.0286 16.8074 18.2783 17.9951C17.3407 18.6202 16.4031 19.3078 15.4654 19.9954C15.5279 19.2453 15.5905 18.4952 15.7155 17.7451C16.153 14.4946 16.8406 11.3067 17.4032 8.05619C17.6533 6.61848 17.7783 4.49318 16.9657 2.74293C16.5906 1.8678 15.9655 0.992675 14.7778 0.430093C13.4651 -0.194997 11.9024 -0.06998 10.5272 0.367584C8.27691 1.11769 5.83906 2.74293 4.27633 4.6182C3.83877 5.11827 3.40121 5.61834 3.02615 6.18092C0.650811 9.30637 -0.661878 13.1194 0.338266 16.3699C1.02586 18.7452 2.71361 19.9954 4.15131 20.1829C4.58888 20.2454 5.464 20.3079 5.96407 19.6829C6.33913 19.1828 6.33913 18.3077 6.33913 17.6826C6.27662 15.8698 6.65167 13.9945 7.33927 12.3068C7.71432 11.4317 8.15189 10.6191 8.71447 9.86895C8.9645 9.5564 10.2147 7.93117 10.7773 8.30622C11.0898 8.49375 11.0273 8.93132 11.0273 9.24386L10.6522 11.6817C9.90214 16.6199 9.27705 21.7457 9.46458 26.8714C9.58959 29.4968 9.90214 32.1847 10.5272 34.81C10.8398 36.1852 11.2773 37.6229 11.9024 38.9356C12.5275 40.2483 13.4026 41.436 14.4028 42.1861C14.9029 42.5611 15.653 42.8737 16.0905 42.6236C16.7156 42.2486 16.5906 41.686 16.4031 40.9984C16.153 40.3733 15.778 39.5607 15.653 39.0606C14.7778 35.8727 14.7153 32.1221 14.7778 28.3716C15.2779 28.4966 15.778 28.6841 16.2781 28.8717C17.5282 29.4343 18.6534 30.1844 19.5285 31.122C20.2786 31.9346 20.9037 33.1848 21.5913 34.685C22.904 37.5604 24.1542 40.2483 26.7796 42.0611C27.2796 42.3111 27.7797 42.5611 28.2798 42.6862C30.4051 43.3738 32.6554 42.8737 34.2806 41.7485C35.1558 41.1859 35.9059 40.3733 36.3434 39.4982C36.781 38.6231 36.8435 37.6229 36.5935 36.8728L36.906 36.4978ZM32.2178 6.24343C32.0303 5.61834 31.7803 4.99325 31.3427 4.49318C31.8428 4.93074 32.1553 5.55583 32.3429 6.18092C32.5304 6.86852 32.5929 7.61863 32.5929 8.36873C32.5304 9.11884 32.3429 9.86895 32.0928 10.5565C31.9678 10.9316 31.8428 11.2441 31.7178 11.5567C31.5302 11.8692 31.3427 12.1818 31.1552 12.4943C31.4677 11.8067 31.7803 11.1191 31.9678 10.4315C32.1553 9.74393 32.3429 9.05633 32.3429 8.36873C32.4054 7.68114 32.3429 6.99354 32.1553 6.36845L32.2178 6.24343ZM6.1516 4.55569C5.71404 4.93074 5.27647 5.30579 4.96393 5.74336C4.40135 6.36845 3.96379 6.99354 3.52622 7.68114C2.71361 8.99382 2.08852 10.4315 1.71346 11.8067C1.33841 13.1819 1.21339 14.5571 1.2759 15.8073C1.33841 17.0575 1.58845 18.2452 2.02601 19.1203C1.52594 18.3702 1.21339 17.245 1.08837 15.9948C1.02586 14.7446 1.15088 13.3069 1.52594 11.8692C1.90099 10.4315 2.52608 8.99382 3.40121 7.61863C3.83877 6.93103 4.27633 6.24343 4.83891 5.61834C5.21397 5.18078 5.65153 4.80572 6.08909 4.43067C6.52665 4.05561 6.96422 3.68056 7.46429 3.43052C6.96422 3.74307 6.52665 4.11812 6.08909 4.49318L6.1516 4.55569ZM19.8411 21.8082C23.029 20.0579 25.9044 17.6826 28.1548 14.8072C26.0295 17.8076 23.154 20.2454 19.9036 21.8707L19.8411 21.8082ZM28.4673 13.8695C26.5295 16.9325 23.7791 19.4328 20.5912 21.1206C23.7166 19.3078 26.4045 16.8074 28.4673 13.8695ZM27.7172 14.6821C25.6544 17.6201 22.779 19.9954 19.5285 21.5581C22.654 19.8704 25.4669 17.5576 27.6547 14.7446L27.7172 14.6821ZM14.3403 3.99311C14.5903 4.43067 14.7153 4.86823 14.7778 5.3683C14.9654 6.30594 14.9654 7.36859 14.8403 8.49375L13.9027 14.3696C13.5277 16.9325 13.2151 19.4953 12.9651 22.0582C13.1526 19.4328 13.4651 16.8074 13.8402 14.2446C14.0902 12.4318 14.4028 10.8691 14.7778 8.43124C14.9029 7.30608 14.9654 6.24343 14.7778 5.24328C14.7153 4.74321 14.5903 4.24314 14.3403 3.80558C14.0902 3.36802 13.6527 2.99296 13.1526 2.93045C13.6527 2.99296 14.0902 3.36802 14.3403 3.80558V3.99311ZM13.3401 16.3699C13.5902 14.5571 13.8402 12.8069 14.1527 11.0566C14.2778 10.119 14.5278 8.93131 14.6528 7.86866C14.7778 6.80601 14.7778 5.80587 14.5278 4.86823C14.7778 5.80587 14.7778 6.80601 14.6528 7.86866C14.5903 8.43124 14.5278 8.99382 14.4653 9.5564L14.2153 11.1191C13.9027 12.8694 13.6527 14.6196 13.4026 16.4324C13.1526 18.3077 12.9651 20.1829 12.8401 22.0582C12.7776 22.0582 12.7776 22.0582 12.7776 22.0582C12.9026 20.1204 13.0901 18.1826 13.3401 16.3074V16.3699ZM12.9026 22.9958C12.9026 23.0583 12.9026 23.1208 12.9026 23.1834C12.9026 23.1208 12.9026 23.0583 12.9026 22.9958ZM12.715 23.0583C12.715 23.1208 12.715 23.1834 12.715 23.2459C12.715 23.1834 12.715 23.1208 12.715 23.0583ZM14.6528 42.1861C12.7776 40.5609 11.3398 37.4979 10.5272 33.9974C9.96465 31.5596 9.77712 29.2467 9.71461 27.1214C9.6521 24.9961 9.71461 22.9958 9.90214 21.2456C9.71461 23.996 9.77712 27.0589 10.1522 30.3094C10.4647 32.7472 10.9648 35.0601 11.7149 37.1229C12.465 39.1857 13.4651 40.9984 14.7153 42.1861H14.6528ZM14.0277 15.9948C13.7777 17.8701 13.5902 19.7454 13.4026 21.6206C13.5277 19.7454 13.7152 17.8701 13.9652 15.9948C14.2153 14.2446 14.4653 12.4943 14.7778 10.7441C14.9654 9.5564 15.2154 8.30622 15.2779 7.18106C15.3404 6.0559 15.2779 4.99325 14.9029 4.05561C15.2779 4.99325 15.4029 6.0559 15.3404 7.18106C15.2779 8.30622 15.0279 9.5564 14.8403 10.7441C14.5278 12.4943 14.2778 14.2446 14.0277 15.9948ZM15.0904 21.1831C15.0904 21.1206 15.0904 21.0581 15.0904 20.9955C15.2779 20.8705 15.4654 20.7455 15.653 20.6205C17.4657 19.2453 18.9659 18.2451 20.2161 17.495C19.2785 18.1826 18.2158 18.9328 17.0282 19.8079C16.3406 20.3079 15.7155 20.7455 15.0904 21.1831ZM18.7784 23.871C18.8409 23.871 18.9034 23.871 18.9659 23.871C19.1535 23.996 19.341 24.0585 19.5285 24.1835C19.9036 24.4335 20.2786 24.6836 20.6537 24.9961C20.0286 24.6211 19.341 24.3085 18.6534 23.996L18.7784 23.871ZM26.1545 34.935C26.592 35.8727 27.0296 36.7478 27.5297 37.4979C28.0922 38.248 28.5923 38.7481 29.3424 39.1231C28.5923 38.8106 28.0297 38.3105 27.4672 37.5604C26.9046 36.8103 26.467 35.9352 26.0295 34.9976C25.1543 33.1848 24.4667 31.0595 23.029 29.1217C24.5292 31.0595 25.2793 33.1848 26.1545 34.9976V34.935ZM25.4044 34.1849C25.8419 35.1226 26.2795 36.0602 26.7796 36.9353C27.0296 37.3729 27.2796 37.7479 27.5922 38.123C27.9047 38.4981 28.1548 38.8106 28.5298 39.0606C28.1548 38.8106 27.8422 38.4981 27.5297 38.1855C27.2171 37.8105 26.9046 37.4354 26.6545 36.9978C26.1545 36.1852 25.7169 35.2476 25.2793 34.31C24.4667 32.4347 23.6541 30.3094 22.0289 28.5591C23.7166 30.2469 24.5917 32.4347 25.4044 34.31V34.1849ZM25.7794 35.5601C26.217 36.4978 26.7171 37.3729 27.2796 38.123C27.8422 38.8731 28.4673 39.4357 29.2799 39.7482C27.5922 39.1857 26.5295 37.4354 25.6544 35.5601C24.7793 33.6849 24.0917 31.6221 22.779 29.7468C24.1542 31.6221 24.8418 33.6849 25.7169 35.5601H25.7794ZM35.5933 39.4357C35.1558 40.3733 34.4057 41.311 33.343 41.9361C31.8428 42.8112 29.9675 42.9987 28.3423 42.5611C27.5297 42.3736 26.7796 41.9986 26.1545 41.4985C25.5294 41.0609 25.0293 40.4358 24.7168 39.9983C24.9668 40.3733 25.3419 40.7484 25.7794 41.1234C26.217 41.4985 26.7171 41.8735 27.2796 42.1236C28.3423 42.6237 29.5925 42.8112 30.7801 42.6236C32.5929 42.3736 34.0306 41.436 34.9057 40.3108C35.7809 39.1857 36.0309 37.873 35.9059 36.8728C36.0309 37.5604 36.0309 38.4981 35.5933 39.4357ZM58.139 32.6847C57.7639 32.0596 56.9513 32.3097 56.1387 32.8097C55.3261 33.3098 54.451 33.9974 53.8884 34.31C51.7631 35.5601 49.5753 36.2477 47.95 35.8102C47.0749 35.6226 46.4498 35.3101 45.8872 34.685C46.4498 34.3725 47.0124 33.9349 47.45 33.5598C48.9502 32.3097 50.4504 30.997 51.8881 29.5593C53.3258 28.1216 54.701 26.6214 55.9512 24.8711C57.6389 22.4333 58.8891 19.2453 57.6389 16.3074C56.2012 12.8694 51.9506 11.4317 48.5126 12.4318C45.7622 13.2444 43.5119 15.3072 41.8867 17.6201C40.0739 20.2454 38.8862 23.3709 38.5112 26.6214C38.3236 28.2466 38.3862 29.8718 38.6362 31.4971C38.8862 33.1848 39.4488 34.81 40.3864 36.3102C41.3241 37.873 42.8243 39.3107 44.6996 40.0608C46.5123 40.7484 48.4501 40.8109 50.1378 40.3733C53.6383 39.4982 56.2637 37.0604 57.6389 34.685C58.014 34.0599 58.389 33.2473 58.139 32.7472V32.6847ZM51.0755 22.3082C50.3254 23.4334 49.3877 24.496 48.5126 25.5587C47.575 26.6214 46.6998 27.684 45.8872 28.6841C45.3246 29.3717 44.7621 30.0593 44.3245 30.6844C44.3245 30.6219 44.3245 30.5594 44.3245 30.4969C44.6996 29.9343 45.1371 29.3092 45.6372 28.6841C46.4498 27.684 47.3874 26.6214 48.2626 25.5587C49.2002 24.496 50.1378 23.3709 50.9505 22.3082C51.3255 21.7457 51.7006 21.1831 52.0131 20.683C52.3257 20.1829 52.5132 19.6829 52.6382 19.3078C52.5132 20.1204 51.8881 21.3081 51.138 22.3707L51.0755 22.3082ZM43.3869 33.3723C43.3869 33.4348 43.3869 33.4973 43.3869 33.5598C42.7618 32.1221 42.5117 30.4969 42.5117 28.8717C42.5117 26.9964 42.8868 25.1211 43.5744 23.3709C44.262 21.6206 45.3246 19.9954 46.5748 18.6827C47.7625 17.37 49.3877 16.4324 50.8879 16.4949C49.3877 16.4949 47.825 17.4325 46.6373 18.7452C45.3872 20.1204 44.387 21.7457 43.6994 23.4959C43.0118 25.2462 42.6368 27.1214 42.6368 28.9967C42.6368 30.5594 42.8868 32.1221 43.4494 33.4973L43.3869 33.3723ZM44.8246 25.7462C45.5122 23.3084 48.1376 17.8701 51.4505 18.6202C52.8257 18.9327 50.0128 21.9957 49.6378 22.4333C48.8877 23.2459 48.1376 23.996 47.3874 24.8086C46.3248 25.9338 45.3246 27.1214 44.5745 28.4966C44.512 28.6216 44.4495 28.7467 44.387 28.8717C44.387 27.809 44.5745 26.7464 44.8871 25.6837L44.8246 25.7462ZM52.7007 16.4949C51.9506 16.1824 51.0755 16.1198 50.2629 16.2449C49.4502 16.3699 48.6376 16.7449 47.95 17.245C46.5123 18.3077 45.3246 19.8704 44.387 21.4956C42.5743 24.8086 41.9492 28.8717 42.8868 32.4972C41.8867 28.8717 42.4492 24.7461 44.3245 21.4331C45.2621 19.7454 46.4498 18.1826 47.95 17.12C48.7001 16.6199 49.5128 16.2449 50.3254 16.1198C51.138 15.9948 52.0131 16.1198 52.7632 16.4324L52.7007 16.4949ZM43.1993 23.5584C43.8869 21.7457 44.8871 20.0579 46.1373 18.6202C47.3874 17.1825 49.0127 16.0573 50.7004 15.9323C49.0127 16.1198 47.3874 17.245 46.1373 18.6827C44.8871 20.1204 43.8869 21.8082 43.1993 23.6209C42.5117 25.4337 42.1992 27.3715 42.1992 29.3092C42.1992 31.247 42.5743 33.1223 43.4494 34.7475C42.5117 33.1223 42.1367 31.1845 42.0742 29.2467C42.0117 27.309 42.3242 25.3712 43.0118 23.5584H43.1993ZM54.451 37.6854C53.0758 38.7481 51.3255 39.8107 49.0752 40.1233C47.5125 40.3108 45.8872 40.0608 44.387 39.3107C42.9493 38.5606 41.8241 37.4354 41.074 36.2477C39.5113 33.8099 39.1363 31.1845 39.1363 29.0592C39.1988 30.7469 39.5113 32.6222 40.3239 34.435C41.074 36.2477 42.4492 38.0605 44.512 39.1231C46.0748 39.8733 47.7 40.0608 49.1377 39.8733C50.5754 39.6857 51.8256 39.1857 52.8882 38.5606C55.076 37.3104 56.5763 35.6852 57.8264 34.1224C56.9513 35.2476 55.8887 36.4353 54.5135 37.5604L54.451 37.6854ZM80.7341 22.8083C82.0468 21.6206 83.2344 20.2454 83.547 18.4952C83.9845 16.0573 82.7969 13.7445 80.484 12.8069C79.1088 12.2443 77.5461 12.3068 76.1084 12.3068C73.1705 12.2443 70.17 12.3068 67.2321 12.5568C65.7944 12.6819 64.4192 12.9944 63.169 13.682C61.3563 14.6821 60.2311 16.2449 60.0436 17.6826C59.9811 18.1201 59.8561 18.9953 60.5437 19.4953C61.1062 19.8704 62.1064 19.8079 62.794 19.7454C66.357 19.3078 70.045 19.6829 73.5455 18.9953C73.9206 18.9327 74.5457 18.7452 74.8582 19.0578C75.3583 19.4953 74.1081 20.4955 73.8581 20.7455C72.9204 21.5581 72.0453 22.4333 71.1702 23.3084C70.5451 23.9335 69.92 24.5586 69.2949 25.2462C68.6073 25.1836 67.4822 25.1211 66.1695 25.1211C65.4194 25.1211 64.6693 25.1836 64.1692 26.6839C63.7941 27.809 63.6691 29.4343 63.7316 30.872C63.7316 31.3095 63.7941 32.1221 63.9817 32.5597C63.5441 33.3723 63.169 34.1849 62.7315 34.9976C61.7313 36.7478 61.0437 38.1855 61.1062 40.2483C61.1062 40.6859 61.1688 41.561 61.4188 41.9986C61.6063 42.3736 61.9189 42.2486 62.1064 42.1236C63.044 41.6235 64.1067 41.4985 65.1693 41.436C67.0446 41.311 68.9824 41.4985 70.9202 41.6235C72.6079 41.686 74.2956 41.8735 76.0459 41.686C76.9835 41.561 77.9212 41.311 78.7963 40.9359C79.7339 40.5609 80.7341 40.0608 81.4217 38.9981C81.6092 38.7481 81.7967 38.373 81.7967 37.873C81.6717 36.4353 80.7966 36.6228 80.4215 36.6228C77.4211 36.3728 74.1706 36.2477 70.8576 35.6226C70.8576 35.6226 70.2951 35.4976 69.3574 35.3101C69.2324 35.3101 69.0449 35.3101 68.8574 35.3101C69.7325 34.0599 70.6076 32.8722 71.5452 31.6846C71.6703 31.5596 71.7953 31.4345 71.9203 31.3095C72.0453 31.1845 72.9829 31.1845 73.1705 31.122C73.608 31.0595 74.0456 30.997 74.4832 30.872C75.9834 30.4344 77.4836 29.3717 78.1087 27.934C78.2337 27.684 78.3587 27.309 78.3587 26.8089C78.2962 25.8712 77.9837 25.6212 77.6711 25.5587L78.6713 24.6836C79.2964 24.121 79.984 23.5584 80.6716 22.9333L80.7341 22.8083ZM61.4188 38.5606C61.4188 38.6231 61.4188 38.6231 61.4188 38.6856C61.4188 38.6231 61.4188 38.5606 61.4188 38.4981V38.5606ZM62.6065 36.9978C62.4814 37.0604 62.3564 37.1229 62.3564 37.1229C62.2939 37.0604 62.2939 37.1229 62.3564 37.1854C62.4189 37.0604 62.4814 36.9978 62.5439 36.9353C62.6065 36.8728 62.669 36.8103 62.7315 36.7478C62.7315 36.8103 62.7315 36.8728 62.7315 36.9353L62.6065 36.9978ZM69.0449 31.6846C68.9824 31.7471 68.9199 31.8096 68.8574 31.8721C68.9199 31.8096 68.9824 31.7471 69.0449 31.6846ZM63.7941 34.685C63.7316 34.7475 63.7316 34.81 63.6691 34.8725C63.6066 34.8725 63.5441 34.935 63.4816 34.9976C63.7941 34.31 64.1692 33.6224 64.5442 32.9973C64.6067 32.9973 64.6693 32.9348 64.7318 32.8722C64.4192 33.4348 64.1067 34.0599 63.7941 34.685ZM66.357 26.5588C66.0444 26.6839 65.7319 26.8089 65.4194 27.0589C65.1068 27.2464 64.8568 27.4965 64.6067 27.8715C64.3567 28.2466 64.1067 28.6841 63.9817 29.1842C64.1067 28.6216 64.2942 28.1841 64.5442 27.809C64.7943 27.434 65.1068 27.1214 65.4194 26.8714C65.7319 26.6214 66.0444 26.4963 66.357 26.3713C66.5445 26.3088 66.732 26.3088 66.9196 26.3088H67.4196C67.1071 26.3713 66.7946 26.4338 66.482 26.5588H66.357ZM68.9824 31.7471C68.5448 32.3097 68.1072 32.8723 67.6697 33.4348C68.1072 32.8723 68.5448 32.3097 68.9824 31.7471ZM81.6717 38.8106C80.9216 39.5607 79.9214 40.3108 78.7338 40.8109C77.046 41.4985 75.5458 41.561 74.3581 41.436C75.2958 41.436 76.3584 41.311 77.4836 40.9984C79.1713 40.5609 80.609 39.7482 81.6717 38.8106ZM69.1699 37.998C71.6077 38.123 74.0456 38.373 76.4209 38.5606C73.9831 38.4981 71.5452 38.248 69.1074 37.998H69.1699ZM76.2959 38.0605C73.9206 37.998 71.4827 37.748 69.0449 37.4979C71.4827 37.6229 73.9206 37.873 76.2959 38.0605ZM75.6708 38.373C73.233 38.3105 70.7951 38.0605 68.3573 37.8105C70.7951 37.9355 73.233 38.1855 75.6083 38.373H75.6708ZM68.2323 33.5598C68.6698 32.9348 69.1074 32.3097 69.545 31.6846C69.0449 32.3097 68.6073 32.9348 68.1698 33.5598H68.2323ZM81.2966 16.995C81.4217 17.4325 81.3591 17.8701 81.2341 18.3077C80.9841 19.1203 80.484 19.8704 79.8589 20.6205C78.6088 22.0582 76.671 23.6834 75.6708 24.6836C75.4208 24.9336 75.1708 25.1836 74.9207 25.4337C74.8582 25.4337 74.7957 25.4337 74.7332 25.4337C75.0457 25.1211 75.3583 24.8086 75.6708 24.5586C76.7335 23.5584 78.6088 21.9957 79.8589 20.558C80.484 19.8704 80.9841 19.1203 81.2966 18.3077C81.4217 17.8701 81.4842 17.4325 81.3592 16.995C81.2966 16.4949 80.9841 16.1198 80.609 15.8698C80.9841 16.1198 81.2966 16.4949 81.3592 16.995H81.2966ZM74.7332 13.557L73.1705 13.682C72.5454 13.7445 71.9203 13.807 71.2952 13.8695C70.1075 14.057 68.9824 14.1196 67.7322 14.3071C66.5445 14.4321 65.3568 14.6821 64.2942 14.9947C63.2315 15.3072 62.1689 15.6823 61.4188 16.1824C62.0439 15.6198 63.044 15.1822 64.1067 14.8697C65.1693 14.5571 66.357 14.3071 67.6072 14.1196C68.2323 14.057 68.9199 13.9945 69.545 13.932C70.17 13.8695 70.7951 13.807 71.4202 13.7445L73.4205 13.557L74.9832 13.4945C75.5458 13.4945 76.1084 13.4945 76.671 13.4945C76.1084 13.4945 75.5458 13.4945 74.9832 13.557H74.7332ZM75.9834 24.1835L78.0462 22.3082C79.5464 20.8705 80.9841 19.6203 81.4217 17.8701C81.0466 19.5578 79.6714 20.808 78.1712 22.2457L76.1084 24.1835L74.8582 25.3712C74.7957 25.3712 74.7332 25.3712 74.6707 25.3712C75.1083 24.9336 75.5458 24.496 75.9834 24.0585V24.1835ZM73.6705 26.9964C73.7331 26.9964 73.7956 26.9964 73.8581 26.9964C73.7956 26.9964 73.7331 26.9964 73.6705 26.9964ZM73.1705 26.9964C73.233 26.9964 73.2955 26.9964 73.358 26.9964C73.2955 26.9964 73.233 26.9964 73.1705 26.9964ZM72.5454 27.3715C72.6079 27.3715 72.6704 27.3715 72.7329 27.3715C72.6704 27.3715 72.6079 27.3715 72.5454 27.3715ZM72.4829 27.6215C72.4204 27.6215 72.3579 27.6215 72.2953 27.6215C72.3579 27.559 72.3579 27.4965 72.4204 27.434C72.4829 27.434 72.5454 27.434 72.6079 27.434C72.5454 27.4965 72.4829 27.559 72.4204 27.6215H72.4829ZM72.6704 27.6215C72.6079 27.6215 72.5454 27.6215 72.4829 27.6215C72.4829 27.559 72.4829 27.559 72.4829 27.4965C72.5454 27.4965 72.6079 27.4965 72.6704 27.4965V27.6215ZM72.8579 27.309C72.7954 27.309 72.7329 27.309 72.6704 27.309C72.7329 27.309 72.7954 27.309 72.8579 27.309ZM72.7954 26.9964C72.8579 26.9964 72.9204 26.9964 72.9829 26.9964C72.9204 26.9964 72.8579 26.9964 72.7954 26.9964ZM73.1705 27.434C73.108 27.434 73.0455 27.434 72.9829 27.434C73.0455 27.434 73.108 27.434 73.1705 27.434ZM73.358 27.2464C73.2955 27.2464 73.233 27.2464 73.1705 27.2464C73.233 27.2464 73.2955 27.2464 73.358 27.2464ZM78.3587 27.309C77.7961 28.0591 77.1085 28.8092 76.2959 29.3717C75.2333 30.1844 74.2331 30.4344 73.4205 30.4344C74.0456 30.3094 74.7332 30.0593 75.4833 29.6843C76.6085 29.0592 77.5461 28.1841 78.2962 27.309H78.3587ZM75.3583 25.1836C75.2958 25.1836 75.2333 25.1836 75.1708 25.1836C76.1709 24.246 77.1711 23.3709 78.7338 21.9332C80.359 20.3705 81.6717 18.9953 81.7967 17.12C81.6717 18.9953 80.4215 20.3705 78.7963 21.9957C77.2961 23.4334 76.3584 24.3085 75.4208 25.1836H75.3583ZM91.2718 17.7451C90.0841 17.1825 88.3963 17.12 86.9586 17.37C86.5211 17.4325 85.6459 17.6201 85.2709 17.9951C84.9583 18.3077 85.1459 18.6202 85.2709 18.8702C85.896 19.8704 86.2085 20.9955 86.3961 22.1207C86.7711 24.121 86.7711 26.1838 86.7711 28.1841C86.7711 29.8718 86.4586 31.6846 86.7086 33.7474C86.8336 34.81 87.1462 35.9352 87.7712 36.9978C88.3338 38.0605 89.334 39.1857 90.7092 39.2482C91.0842 39.2482 91.5218 39.1857 91.9594 38.8731C93.0845 37.9355 92.5844 37.4979 92.5219 37.1854C92.2094 36.1227 92.1469 34.7475 92.2719 33.0598C92.3969 31.4345 92.7095 29.4343 92.897 27.434C92.897 27.434 92.897 27.2464 92.9595 26.9339C93.022 26.6214 93.0845 26.1838 93.147 25.6212C93.2095 24.496 93.272 22.9333 93.147 21.1831C93.0845 19.8704 92.897 18.5577 91.2718 17.8076V17.7451ZM88.1463 36.5603C87.1462 34.6225 87.1462 32.8097 87.2712 31.5596C87.2712 32.5597 87.3337 33.8099 87.7087 35.1226C88.0213 36.1227 88.5214 37.0604 89.1464 37.748C89.7715 38.4356 90.5216 38.8731 91.2092 39.1231C90.1466 38.8731 88.9589 37.998 88.2088 36.6228L88.1463 36.5603ZM90.7717 28.9967C90.7092 30.3719 90.5216 31.7471 90.3966 33.0598C90.4591 31.7471 90.5842 30.3719 90.6467 28.9967C90.7092 27.6215 90.7717 26.2463 90.7717 24.8711C90.8342 26.2463 90.8342 27.6215 90.7717 28.9967ZM90.9592 29.7468C91.0217 28.3716 91.0842 26.9964 91.0842 25.6212C91.1467 26.9964 91.1467 28.3716 91.0842 29.7468C90.9592 31.122 90.7717 32.4347 90.7092 33.6849C90.7092 32.4347 90.8342 31.122 90.9592 29.7468ZM90.5842 29.8718C90.4591 31.247 90.2716 32.5597 90.2091 33.8724C90.2091 32.5597 90.3341 31.247 90.4591 29.8718C90.5842 28.4966 90.6467 27.1214 90.6467 25.7462C90.7092 27.1214 90.7092 28.4966 90.5842 29.8718ZM91.9594 21.3081C91.7718 20.808 91.5843 20.3079 91.3343 19.8079C91.0842 19.3078 90.7717 18.8702 90.3966 18.4952C89.9591 18.1201 89.5215 17.8076 88.9589 17.6201C89.584 17.7451 90.0841 18.0576 90.5216 18.4327C90.9592 18.8077 91.2718 19.2453 91.5218 19.7454C91.7718 20.2454 91.9594 20.808 92.0844 21.3706C92.1469 21.6206 92.1469 21.8707 92.2094 22.1207V22.9333C92.1469 22.3707 92.0219 21.8082 91.8968 21.3081H91.9594ZM92.897 9.24386C92.3344 8.49375 91.6468 8.05619 90.8342 7.80615C90.4591 7.68113 90.0216 7.55612 89.459 7.55612C88.0838 7.55612 86.7711 8.24372 85.9585 9.36888C85.5834 9.93146 85.2084 10.7441 85.2084 11.7442C85.2084 12.7444 85.5209 13.682 86.0835 14.4321C86.8336 15.4948 88.1463 16.1198 89.2715 14.9322C89.6465 14.4946 89.8966 13.8695 89.9591 13.1819C90.0216 12.8694 90.0216 12.4943 90.0216 12.1193V11.8692C90.2091 12.0568 90.3341 12.3068 90.3341 12.7444C90.3341 12.9944 90.2716 13.3695 90.2716 13.8695C90.3341 14.5571 90.6467 14.8697 91.0842 14.8697C92.2094 14.8697 93.022 13.682 93.3971 12.7444C93.8346 11.5567 93.5846 10.1815 92.772 9.18135L92.897 9.24386ZM89.209 14.057C88.8339 14.3071 88.3963 14.4321 88.0213 14.4321C87.5837 14.4321 87.2087 14.2446 86.8336 13.932C86.6461 13.7445 86.5211 13.557 86.3961 13.3695C86.271 13.1194 86.2085 12.8694 86.146 12.6193C86.3335 13.1194 86.6461 13.4945 86.9586 13.7445C87.3337 13.9945 87.7087 14.1821 88.0838 14.1821C88.4589 14.2446 88.8339 14.1196 89.1464 13.8695C89.459 13.6195 89.709 13.3069 89.8341 12.8069C89.7715 13.3069 89.5215 13.682 89.209 13.932V14.057ZM90.3341 13.0569C90.4591 12.6819 90.3966 12.3068 90.2091 12.0568C90.1466 11.9317 90.0216 11.8067 89.8966 11.7442C89.9591 11.8067 90.0216 11.8692 90.0841 11.9317C90.3341 12.1818 90.4591 12.6819 90.2716 13.1819L90.3341 13.0569ZM89.7715 9.74393C89.459 9.68142 89.0839 9.68142 88.7089 9.86895C88.3338 10.0565 88.0213 10.3065 87.8338 10.6191C88.0213 10.3065 88.2713 9.99397 88.6464 9.80644C89.0214 9.61891 89.459 9.61891 89.7715 9.68142C90.4591 9.80644 91.0217 10.1815 91.3968 10.8066C90.9592 10.1815 90.3966 9.86895 89.7715 9.74393ZM87.5212 10.9941C87.7087 10.1815 88.4588 9.49389 89.3965 9.43139C90.2091 9.43139 90.8342 9.74393 91.3343 10.3065C90.7717 9.80644 90.2091 9.5564 89.459 9.5564C88.5839 9.61891 87.8963 10.1815 87.6462 10.9941H87.5212ZM89.8341 9.30637C89.459 9.24386 88.8964 9.30637 88.4588 9.5564C88.0213 9.74393 87.7087 10.0565 87.4587 10.494C87.6462 10.0565 87.9588 9.68142 88.3963 9.43139C88.8339 9.18135 89.3965 9.11884 89.7715 9.18135C90.5842 9.30637 91.2718 9.68142 91.7093 10.4315C91.2092 9.68142 90.5216 9.36888 89.7715 9.24386L89.8341 9.30637ZM119.948 38.0605C119.323 36.8728 118.948 34.685 118.698 32.4972C118.448 30.3094 118.385 28.0591 118.573 25.8087C118.573 25.8087 118.636 25.0586 118.761 23.8084C118.886 22.5583 119.135 20.808 119.448 18.8702C119.698 17.4325 119.948 16.0573 118.698 14.6196C117.823 13.557 116.385 12.6819 114.948 12.3068C114.51 12.1818 113.697 11.9943 113.197 12.2443C113.01 12.3693 112.885 12.4943 112.822 12.6819C112.385 12.4943 111.947 12.3068 111.51 12.1818C110.384 11.8067 109.197 11.6192 107.947 11.6192C104.571 11.6192 101.321 13.6195 99.5078 16.4324C98.4451 18.1201 97.82 19.8704 97.3825 21.5581C96.5074 24.8086 96.3823 28.3716 96.8824 31.6846C97.2575 34.6225 98.5077 38.3105 102.133 40.2483C105.821 42.0611 110.009 40.4983 112.322 37.3104C112.947 36.4978 113.385 35.6226 113.76 34.7475C114.135 35.8727 114.572 37.0603 115.323 38.123C115.76 38.7481 116.26 39.3732 116.885 39.8733C117.51 40.3733 118.26 40.6859 119.01 40.6234C119.51 40.5609 119.885 40.3108 120.136 39.9358C120.448 39.4357 120.511 38.7481 120.198 38.1855L119.948 38.0605ZM106.884 17.37C107.821 17.0575 108.759 16.995 109.822 17.1825C110.884 17.37 111.885 17.7451 112.822 18.2452C112.76 18.2452 112.697 18.3077 112.635 18.3702C111.76 17.9326 110.822 17.5576 109.884 17.4325C109.384 17.3075 108.884 17.245 108.384 17.245C108.134 17.245 107.947 17.3075 107.696 17.37C107.446 17.4325 107.196 17.495 106.946 17.5576C106.696 17.5576 106.509 17.6826 106.321 17.7451C106.134 17.8076 105.946 17.9326 105.759 18.0576L105.446 18.1826C105.384 18.2452 105.321 18.3077 105.259 18.3702C105.071 18.5577 104.884 18.6827 104.759 18.9327C105.384 18.1826 106.071 17.6826 106.946 17.37H106.884ZM104.571 20.933C106.071 17.7451 109.259 18.5577 112.01 19.3703C111.635 20.3705 111.51 21.7457 111.384 22.4958L110.759 26.3713C110.197 28.3716 110.072 30.3719 109.134 32.3097C108.509 33.5598 107.134 35.5601 105.509 35.3726C104.133 35.1851 103.383 33.3723 103.133 32.1847C102.321 28.6216 102.821 24.121 104.509 20.8705L104.571 20.933ZM105.259 36.8728C106.571 37.0604 108.009 36.3102 109.072 35.0601C108.009 36.3102 106.571 37.1229 105.259 36.9353C103.883 36.8103 102.633 35.6852 101.883 34.2474C101.508 33.4973 101.258 32.7472 101.133 31.8721C100.946 30.997 100.883 30.0593 100.82 29.1842C100.758 27.3715 100.883 25.5587 101.196 23.8084C100.883 25.5587 100.82 27.3715 100.946 29.1842C101.008 30.0593 101.071 30.9345 101.258 31.8096C101.383 32.6847 101.633 33.4348 102.008 34.1849C102.758 35.6226 103.946 36.6853 105.259 36.8103V36.8728ZM101.321 21.8707C100.82 23.6209 100.633 25.4337 100.57 27.2464C100.508 29.0592 100.633 30.9345 101.071 32.6222C101.508 34.2474 102.446 35.8102 103.758 36.6228C105.071 37.4354 106.696 37.3104 108.072 36.3728C106.759 37.3729 105.134 37.5604 103.758 36.7478C102.383 35.9352 101.446 34.3725 101.008 32.7472C100.57 31.0595 100.445 29.1842 100.508 27.3715C100.57 25.5587 100.82 23.7459 101.321 21.9957V21.8707ZM101.633 34.8725C101.196 34.1224 100.883 33.3098 100.695 32.4347C100.508 31.5596 100.383 30.6219 100.32 29.6843C100.195 27.8715 100.32 25.9963 100.633 24.1835C100.383 25.9963 100.32 27.8715 100.445 29.6843C100.508 30.6219 100.633 31.4971 100.82 32.3722C101.008 33.1848 101.321 33.9974 101.758 34.7475C102.571 36.2477 103.946 37.3729 105.509 37.4354C107.071 37.4979 108.634 36.4978 109.697 35.1851C108.634 36.5603 107.071 37.6229 105.509 37.5604C103.946 37.4979 102.508 36.3728 101.696 34.8725H101.633ZM112.135 36.8728C111.384 37.998 110.384 38.9356 109.197 39.6232C108.009 40.3108 106.571 40.6859 105.259 40.5609C107.446 40.6859 109.447 39.6232 110.822 38.248C112.135 36.9353 113.01 35.3101 113.572 33.6224C113.572 33.7474 113.572 33.8724 113.572 33.9974C113.197 34.9976 112.697 35.9977 112.072 36.8728H112.135ZM117.885 14.8072C118.135 15.3697 118.323 15.9948 118.448 16.6199C118.511 17.12 118.511 17.6201 118.511 18.1201C118.448 17.9326 118.385 17.7451 118.323 17.6201C118.323 17.3075 118.26 16.995 118.198 16.6824C118.073 16.0573 117.885 15.4322 117.635 14.8697C117.385 14.3071 117.073 13.7445 116.635 13.2444C117.135 13.682 117.51 14.2446 117.76 14.8072H117.885ZM117.323 33.5598C116.698 30.2469 116.573 26.8714 116.76 23.4959C116.698 26.8714 116.823 30.2469 117.26 33.5598H117.323ZM116.448 22.6208C116.385 25.9963 116.448 29.3717 116.823 32.7472C116.26 29.4343 116.198 25.9963 116.448 22.6208ZM116.26 23.6834C116.26 27.0589 116.385 30.4344 116.885 33.8099C116.26 30.4969 116.135 27.0589 116.323 23.6834H116.26ZM113.76 33.0598C113.76 32.9348 113.76 32.8097 113.76 32.6847C113.76 32.6222 113.76 32.5597 113.76 32.4972C113.76 32.6222 113.76 32.7472 113.76 32.8722C113.76 32.9348 113.76 32.9973 113.76 33.0598ZM115.448 37.6229C114.697 36.3728 114.26 35.1851 114.01 34.0599C114.01 33.9974 114.01 33.9349 114.01 33.8724C114.197 34.56 114.447 35.2476 114.76 35.9352C115.26 37.0604 115.885 38.123 116.698 38.9356C117.448 39.7482 118.386 40.3108 119.198 40.3733C117.948 40.3108 116.385 39.1857 115.385 37.6229H115.448Z" fill="white"/>
</svg>
