<svg width="147" height="41" viewBox="0 0 147 41" fill="none" xmlns="http://www.w3.org/2000/svg">
<path d="M9.75184 11.9429C9.93484 10.2095 7.83063 9.44629 6.1318 9.44629C1.53313 9.44629 0 13.0213 0 15.1633C0 19.41 0 23.6566 0 27.9033C0 29.228 0.594299 30.8958 2.78036 30.8852C4.33008 30.8777 4.29195 29.6188 4.29195 28.5041V20.3566H5.65314C6.97126 20.3566 8.99759 19.9326 9.015 18.151C9.0221 17.4187 8.34905 16.9496 7.30391 16.9496H4.29808L4.26299 15.4734C4.21488 13.4446 5.46558 12.5931 7.05561 12.8359C9.19789 13.1628 9.64515 12.9539 9.75184 11.9429ZM9.76957 22.9841C9.76957 26.9298 12.4936 30.4892 17.2388 30.4892C22.3353 30.4892 25.0594 26.9298 25.0594 22.4599C25.0594 18.8077 22.7254 15.4634 18.6153 14.9858C19.2173 14.8688 19.7576 14.6046 20.1641 14.2524C21.3856 13.1944 21.4294 11.0759 23.3885 9.753C19.7997 8.86847 17.3589 10.2559 16.5582 12.6521C16.3427 13.6578 16.6964 13.791 17.6098 13.5335C18.8123 13.1488 19.4558 12.5652 20.7065 11.1344C19.9444 13.6335 16.8283 15.1149 14.3972 12.8065C15.1403 14.0503 16.0946 14.7017 17.0427 14.9419C12.2991 15.1904 9.76957 18.6771 9.76957 22.9841ZM20.988 22.9841C20.988 25.4122 19.8749 27.1781 17.5902 27.1781C14.9833 27.1781 13.841 25.4122 13.841 22.4599C13.841 20.0041 14.9833 18.2382 17.2388 18.2382C19.8164 18.2382 20.988 20.0041 20.988 22.9841ZM104.458 25.0811V21.6597C104.458 16.5275 101.175 14.9823 97.5279 14.9823C94.0322 14.9823 92.2513 16.2725 91.7557 17.6608C91.409 18.6319 91.7325 19.5502 93.0138 18.8871C93.888 18.4347 95.1828 18.1002 96.9201 18.1002C99.3515 18.1002 100.446 18.7349 100.446 20.8319V21.025H99.0172C92.9993 21.025 90.8717 23.0393 90.8717 25.6882C90.8717 28.4198 93.5464 30.4065 97.4368 30.4065H98.2574C101.905 30.4065 104.458 28.2267 104.458 25.0811ZM100.476 25.4541C100.476 26.9716 99.6251 27.7443 97.8623 27.7443C96.069 27.7443 95.0357 27.0544 95.0357 25.8955C95.0357 24.6815 95.9171 24.0192 99.0172 24.0192C99.7019 24.0192 100.476 24.2783 100.476 25.4541ZM37.2237 17.3532C37.4066 15.6198 35.3025 14.8566 33.6037 14.8566C29.0049 14.8566 27.4719 18.4316 27.4719 20.5737C27.4719 24.8204 27.4719 23.6566 27.4719 27.9033C27.4719 29.228 28.0662 30.8958 30.2522 30.8852C31.8019 30.8777 31.7638 29.6188 31.7638 28.5041L31.7348 20.8838C31.7272 18.8545 32.9374 18.0035 34.5275 18.2461C36.6697 18.5731 37.117 18.3642 37.2237 17.3532ZM55.3722 14.7413C53.6224 14.782 52.1214 15.802 51.1995 17.1684C49.6232 15.7534 48.3995 14.811 46.2995 14.6978C42.9018 14.5148 38.5084 16.3589 38.5084 20.5737C38.5084 24.8204 38.5084 23.6566 38.5084 27.9033C38.5084 29.228 39.1028 30.8957 41.2888 30.8852C42.8385 30.8777 42.6364 29.6188 42.6364 28.5041L42.6074 21.0836C42.5996 19.0543 44.058 18.2672 45.7444 18.2917C46.8723 18.308 48.4901 18.6925 48.5416 22.6315V27.9033C48.5416 29.228 49.1359 30.8958 51.322 30.8852C52.8717 30.8777 52.8336 29.6188 52.8336 28.5041L52.8061 21.2653C52.795 18.3356 54.9756 17.9626 56.6328 18.3718C58.2678 18.838 58.5749 20.127 58.5749 20.5737C58.5749 24.8204 58.5749 23.6566 58.5749 27.9033C58.5749 29.228 59.1692 30.8957 61.3553 30.8852C62.9049 30.8777 62.7511 29.6188 62.7511 28.5041L62.7221 20.8838C62.7131 18.4927 61.4845 14.5769 55.3722 14.7413ZM71.9353 30.8294C76.2395 30.8084 79.3017 29.1184 79.4219 22.9392V17.6675C79.4219 16.3428 78.8276 14.675 76.6416 14.6855C75.0919 14.693 75.13 15.9519 75.13 17.0666L75.1574 24.3054C75.1686 27.235 72.332 27.6081 70.6747 27.1989C69.0397 26.7327 68.7326 25.4437 68.7326 24.997C68.7326 20.7504 68.7326 21.9141 68.7326 17.6675C68.7326 16.3427 68.1383 14.6749 65.9523 14.6855C64.4025 14.693 64.4407 15.9519 64.4407 17.0666L64.4696 24.6869C64.4786 27.078 66.479 30.8121 71.9353 30.8294ZM89.5122 28.3886C89.6952 30.122 87.5911 30.8853 85.8922 30.8853C81.2935 30.8853 81.0338 27.3102 81.0338 25.1681C81.0338 20.7677 81.0369 16.3672 81.034 11.9668C81.034 10.8521 80.9959 9.59318 82.5455 9.58572C84.7316 9.57515 85.3259 11.2429 85.3259 12.5677C85.3259 12.8837 85.3259 17.5887 85.3259 17.8869H85.3163L85.2969 23.7856C85.2902 25.8147 85.2261 27.7383 86.816 27.4957C88.9581 27.1688 89.4056 27.3777 89.5122 28.3886Z" fill="white"/>
<path fill-rule="evenodd" clip-rule="evenodd" d="M109.476 29.3C116.286 24.8532 121.952 23.8314 126.039 27.6247L138.111 38.9898C140.143 40.9029 143.467 40.8625 145.498 38.9488C147.53 37.0351 147.485 33.9046 145.455 31.9901L130.419 17.8134L128.364 15.8546C127.092 14.6422 124.986 14.6422 123.714 15.8546L121.659 17.8134L109.476 29.3L106.623 31.9901C104.593 33.9046 104.548 37.0351 106.58 38.9489C108.611 40.8625 111.935 40.9029 113.967 38.9898L125.207 28.4078C120.866 24.9591 116.328 25.951 109.476 29.3Z" fill="#D8B66D"/>
<path fill-rule="evenodd" clip-rule="evenodd" d="M109.476 29.3C116.286 24.8532 121.952 23.8314 126.039 27.6247L138.111 38.9898C140.143 40.9029 143.467 40.8625 145.498 38.9488C147.53 37.0351 147.485 33.9046 145.455 31.9901L130.419 17.8134L128.364 15.8546C127.092 14.6422 124.986 14.6422 123.714 15.8546L121.659 17.8134L109.476 29.3L106.623 31.9901C104.593 33.9046 104.548 37.0351 106.58 38.9489C108.611 40.8625 111.935 40.9029 113.967 38.9898L125.207 28.4078C120.866 24.9591 116.328 25.951 109.476 29.3Z" fill="#D8B66D"/>
<path fill-rule="evenodd" clip-rule="evenodd" d="M142.602 11.1045C135.792 15.5513 130.126 16.5731 126.039 12.7798L113.967 1.41469C111.935 -0.498354 108.611 -0.458002 106.58 1.45573C104.548 3.36941 104.593 6.49989 106.623 8.41441L121.659 22.591L123.714 24.5498C124.986 25.7622 127.092 25.7622 128.364 24.5498L130.419 22.591L142.602 11.1045L145.455 8.41441C147.485 6.49989 147.53 3.36941 145.498 1.45568C143.467 -0.458003 140.143 -0.498354 138.111 1.41469L126.871 11.9967C131.212 15.4453 135.75 14.4535 142.602 11.1045Z" fill="#D8B66D"/>
</svg>
